<svg width="150" height="150" viewBox="0 0 150 150" fill="none" xmlns="http://www.w3.org/2000/svg">
<rect x="1" y="1" width="148" height="148" rx="74" fill="#231F20"/>
<path d="M37.8693 90V60.9091H48.7784C51.0133 60.9091 52.8883 61.3258 54.4034 62.1591C55.928 62.9924 57.0786 64.1383 57.8551 65.5966C58.6411 67.0455 59.0341 68.6932 59.0341 70.5398C59.0341 72.4053 58.6411 74.0625 57.8551 75.5114C57.0691 76.9602 55.9091 78.1013 54.375 78.9347C52.8409 79.7585 50.9517 80.1705 48.7074 80.1705H41.4773V75.8381H47.9972C49.304 75.8381 50.3741 75.6108 51.2074 75.1562C52.0407 74.7017 52.6563 74.0767 53.054 73.2812C53.4612 72.4858 53.6648 71.572 53.6648 70.5398C53.6648 69.5076 53.4612 68.5985 53.054 67.8125C52.6563 67.0265 52.036 66.4157 51.1932 65.9801C50.3598 65.535 49.285 65.3125 47.9688 65.3125H43.1392V90H37.8693ZM67.5036 60.9091L75.0746 83.8068H75.3729L82.9297 60.9091H88.7251L78.4695 90H71.9638L61.7223 60.9091H67.5036ZM92.017 90V86.7188L106.932 65.3267H91.9318V60.9091H113.466V64.1903L98.5653 85.5824H113.551V90H92.017Z" fill="white"/>
<rect x="1" y="1" width="148" height="148" rx="74" stroke="white" stroke-width="2"/>
</svg>
