<svg xmlns="http://www.w3.org/2000/svg" xmlns:xlink="http://www.w3.org/1999/xlink" xml:space="preserve" style="enable-background:new 0 0 512 512" viewBox="0 0 512 512"><defs><path id="a" d="M0 0h512v512H0z"/></defs><use xlink:href="#a" style="overflow:visible;fill:#25d366"/><clipPath id="c"><use xlink:href="#a" style="overflow:visible"/></clipPath><defs><filter id="b" width="2184.5" height="2184.5" x="-836.3" y="-836.3" filterUnits="userSpaceOnUse"><feColorMatrix values="1 0 0 0 0 0 1 0 0 0 0 0 1 0 0 0 0 0 1 0"/></filter></defs><g style="clip-path:url(#c);mask:url(#SVGID_3_)"><path d="M-836.3-836.3h2184.5v2184.5H-836.3z" style="fill:#25d366"/><image xlink:href="3B6C1D76.png" width="1620" height="1395" style="overflow:visible" transform="translate(-389 -357)"/><image xlink:href="3B6C1D71.png" width="1551" height="1484" style="overflow:visible" transform="translate(-575 -270)"/><image xlink:href="3B6C1D70.png" width="983" height="982" style="overflow:visible" transform="translate(-359 59)"/><image xlink:href="3B6C1D7E.png" width="747" height="747" style="overflow:visible" transform="translate(-186 261)"/><image xlink:href="3B6C1D74.png" width="734" height="706" style="overflow:visible" transform="translate(-250 322)"/><g style="opacity:.45"><image xlink:href="3B6C1D69.png" width="1502" height="658" style="overflow:visible" transform="translate(-688 -472)"/></g></g><path d="M369.2 129.9C339.6 100.3 300.3 84 258.5 84 172.2 84 102 154.2 102 240.5c0 27.6 7.2 54.5 20.9 78.3l-22.2 81.1 83-21.8c22.9 12.5 48.6 19 74.8 19.1h.1c86.3 0 156.5-70.2 156.5-156.5-.1-41.9-16.3-81.2-45.9-110.8zM258.5 370.7c-23.4 0-46.3-6.3-66.3-18.1l-4.8-2.8-49.2 12.9 13.1-48-3.1-4.9c-13-20.7-19.9-44.7-19.9-69.2 0-71.7 58.4-130.1 130.1-130.1 34.7 0 67.4 13.6 92 38.2 24.6 24.6 38.1 57.3 38.1 92 0 71.7-58.3 130-130 130zm71.3-97.4c-3.9-2-23.1-11.4-26.7-12.7-3.6-1.3-6.2-2-8.8 2-2.6 3.9-10.1 12.7-12.4 15.3-2.3 2.6-4.6 2.9-8.5 1-3.9-2-16.5-6.1-31.5-19.4-11.6-10.4-19.5-23.2-21.8-27.1-2.3-3.9-.2-6 1.7-8 1.8-1.8 3.9-4.6 5.9-6.9 2-2.3 2.6-3.9 3.9-6.5 1.3-2.6.7-4.9-.3-6.9s-8.8-21.2-12.1-29c-3.2-7.6-6.4-6.6-8.8-6.7-2.3-.1-4.9-.1-7.5-.1-2.6 0-6.8 1-10.4 4.9-3.6 3.9-13.7 13.4-13.7 32.6 0 19.3 14 37.8 16 40.5 2 2.6 27.6 42.1 66.8 59.1 9.3 4 16.6 6.4 22.3 8.2 9.4 3 17.9 2.6 24.6 1.5 7.5-1.1 23.1-9.5 26.4-18.6 3.3-9.1 3.3-17 2.3-18.6-.8-1.7-3.5-2.6-7.4-4.6z" style="fill-rule:evenodd;clip-rule:evenodd;fill:#fff"/></svg>